<svg width="70" height="57" viewBox="0 0 70 57" fill="none" xmlns="http://www.w3.org/2000/svg">
<g id="icon-Tattooing">
<path id="Vector" d="M0.171875 34.758C0.518031 33.9929 1.10103 33.7378 1.92087 33.7378C3.87028 33.756 5.8379 33.7742 7.7873 33.6649C9.84601 33.5556 11.7225 32.7904 13.2347 31.4058C16.7145 28.2357 20.1032 24.9746 23.5283 21.7499C23.5647 21.7134 23.5647 21.677 23.6012 21.6041C23.4554 21.4584 23.3096 21.2944 23.1639 21.1304C21.4513 19.4179 19.7388 17.6871 18.008 15.9745C17.5708 15.5373 17.3703 15.0818 17.4432 14.4442C17.7347 12.0393 17.006 9.96236 15.3116 8.23159C13.8724 6.75587 13.8724 6.42793 15.3298 4.97044C16.4776 3.80444 17.6436 2.65666 18.8096 1.50888C19.6477 0.670817 20.3582 0.634379 21.1598 1.47244C22.9999 3.45828 25.2408 4.36922 27.9554 4.04128C28.6295 3.96841 29.0668 4.27812 29.504 4.71537C32.9838 8.21337 36.4818 11.6931 39.9616 15.1911C40.3259 15.5555 40.6357 15.6648 41.1458 15.5737C43.4596 15.1547 45.7551 15.3005 48.0142 16.011C48.8887 16.2843 49.3078 16.9584 49.0891 17.7053C48.8705 18.5069 48.1418 18.9078 47.249 18.6345C45.7915 18.1972 44.3158 18.0333 42.8037 18.1244C42.5851 18.1426 42.3664 18.179 42.0385 18.2154C42.2389 18.4523 42.3664 18.598 42.494 18.7256C47.4859 23.7175 52.496 28.7276 57.488 33.7196C58.1803 34.4119 58.9637 34.7945 59.9475 34.5576C61.7694 34.1204 62.3706 31.9524 61.0588 30.5677C59.6013 29.0374 58.071 27.5616 56.577 26.0859C56.1762 25.6851 55.8847 25.2297 56.0305 24.6284C56.3038 23.5717 57.5062 23.2256 58.3442 24.009C59.1823 24.7924 59.9657 25.6122 60.7673 26.4139C61.4779 27.1244 62.1884 27.8167 62.8807 28.5455C65.5771 31.3147 64.8119 35.3957 61.2957 36.9807C61.2046 37.0172 61.1135 37.09 60.8402 37.2176C61.405 37.7277 61.8969 38.1832 62.407 38.6386C62.8625 39.0394 63.0629 39.5496 63.0265 40.1508C63.0265 40.1872 63.0265 40.2419 63.0265 40.2783C63.0447 41.2621 62.7896 42.337 63.154 43.1751C63.5001 44.0132 64.3746 44.6872 65.1398 45.2702C67.0346 46.7095 67.8362 48.5132 67.4354 50.8634C67.2896 51.7379 67.5811 52.4302 68.2917 52.995C68.7654 53.3776 69.1844 53.833 69.5852 54.2885C70.15 54.9079 70.1318 55.7096 69.567 56.2379C69.0386 56.7298 68.237 56.7298 67.654 56.2015C67.071 55.6549 66.5609 55.0537 65.9415 54.5436C65.6682 54.3067 65.2491 54.1245 64.8848 54.0881C63.8645 54.0334 62.8443 54.0517 61.824 54.0699C61.241 54.0699 60.7856 53.8877 60.3665 53.4505C59.2187 52.2845 58.071 51.1185 56.8867 49.9889C56.6681 49.7885 56.3038 49.6427 56.0123 49.6245C55.2471 49.5699 54.4637 49.5699 53.6985 49.6245C52.8968 49.6792 52.2774 49.4423 51.7855 48.8047C51.5669 48.5132 51.3665 48.2217 51.1114 47.8755C49.7268 49.5152 48.1782 50.2257 46.2652 50.0253C45.0446 49.8978 44.0243 49.333 43.1681 48.4767C41.4737 46.7824 39.7976 45.1063 38.1032 43.4302C38.085 43.4119 38.0668 43.4119 37.9939 43.3573C36.6093 44.0132 35.6437 45.1063 35.0607 46.5456C33.8765 49.4606 32 51.8472 29.4129 53.6509C26.7348 55.5092 23.7469 56.4748 20.4675 56.4748C14.2914 56.4748 8.09702 56.4565 1.92087 56.493C1.10103 56.493 0.518031 56.2561 0.171875 55.4909C0.171875 55.2177 0.171875 54.9444 0.171875 54.6711C0.627343 53.9241 1.28322 53.742 2.12128 53.742C8.09702 53.7602 14.0728 53.7602 20.0485 53.742C21.0141 53.742 22.0161 53.7055 22.9635 53.4869C27.4635 52.5031 30.67 49.8614 32.4737 45.6164C33.5304 43.1387 35.2611 41.4261 37.7935 40.4787C40.0527 39.6407 42.2753 38.7662 44.5162 37.8552C46.3563 37.1083 46.8847 35.0131 45.6822 33.4463C44.8988 32.4443 43.6964 32.0981 42.3664 32.5354C39.579 33.4281 36.8097 34.3572 34.004 35.2135C31.9635 35.833 30.1235 35.3775 28.5931 33.8835C27.0627 32.3896 26.6619 30.5313 27.2085 28.4908C27.3906 27.7621 27.6639 27.0697 27.8643 26.341C27.9008 26.177 27.8825 25.922 27.7915 25.8127C27.0991 25.0475 26.3522 24.3187 25.6234 23.5535C25.1315 24.009 24.7307 24.3734 24.3481 24.756C21.5242 27.4159 18.6821 30.0758 15.8582 32.754C13.5444 34.9402 10.848 36.252 7.64155 36.4342C5.80146 36.5253 3.96137 36.4524 2.12128 36.507C1.28322 36.5253 0.609124 36.3249 0.171875 35.5779C0.171875 35.3046 0.171875 35.0313 0.171875 34.758ZM30.3239 24.3005C32.7652 21.8592 35.2429 19.3814 37.6478 16.9766C34.5142 13.8247 31.3259 10.6365 28.2469 7.55749C25.8056 9.9988 23.3279 12.4765 20.923 14.8814C24.0202 17.9968 27.2085 21.1669 30.3239 24.3005ZM45.1903 25.594C43.1498 23.5535 41.1458 21.5495 39.2328 19.6365C37.1559 21.7134 35.0061 23.8632 32.8198 26.0495C34.3866 27.6163 36.0081 29.2378 37.6478 30.841C37.7571 30.9503 37.9393 31.0961 38.0304 31.0596C38.9049 30.7681 39.9616 30.6588 40.6174 30.0941C42.2753 28.673 43.7511 27.0515 45.1903 25.594ZM46.83 39.7135C48.0325 40.916 49.2167 42.1002 50.3098 43.2115C52.3867 41.1346 54.5365 38.9848 56.6499 36.8714C54.9191 35.1406 53.1337 33.3552 51.33 31.5333C50.6195 32.2621 49.8725 32.9908 49.162 33.756C49.0527 33.8653 48.9798 34.084 48.998 34.2297C49.3078 36.507 48.5608 38.3654 46.83 39.7135ZM58.8726 38.8937C56.6317 41.1164 54.4819 43.2844 52.2228 45.5435C52.5871 45.8532 52.9879 46.2176 53.3888 46.582C53.7896 46.9646 56.4495 47.0739 56.8867 46.7277C56.9232 46.6913 56.9414 46.6549 56.9778 46.6367C57.9799 45.6346 59.0001 44.6326 60.0022 43.5941C60.1479 43.4302 60.2572 43.1751 60.2754 42.9383C60.3119 42.2095 60.3119 41.4808 60.2754 40.7702C60.2754 40.5698 60.1843 40.333 60.0386 40.169C59.656 39.6953 59.2188 39.2581 58.8726 38.8937ZM20.0849 4.25991C19.2469 5.09797 18.4453 5.89959 17.6254 6.71943C18.8461 8.0494 19.6295 9.67087 20.0303 11.4199C21.6335 9.81662 23.2186 8.23159 24.8036 6.64656C23.0364 6.26396 21.4149 5.46234 20.0849 4.25991ZM40.8361 42.2459C42.3846 43.8127 43.8057 45.3249 45.3361 46.7642C46.5021 47.8755 48.3057 47.4747 48.998 45.999C47.413 44.414 45.828 42.8289 44.2247 41.2439C44.1154 41.1346 43.8421 41.0799 43.7146 41.1346C42.749 41.4808 41.8381 41.8451 40.8361 42.2459ZM59.1641 48.4039C60.075 49.3148 61.0224 50.2622 61.9698 51.1913C62.0426 51.2642 62.1702 51.3371 62.2613 51.3371C63.0447 51.3553 63.8281 51.3371 64.6844 51.3371C64.6844 50.499 64.6844 49.7338 64.6844 48.9686C64.6844 48.8411 64.6297 48.6954 64.5386 48.6043C63.6095 47.6569 62.6621 46.7277 61.7329 45.7986C60.8766 46.6913 60.0568 47.5112 59.1641 48.4039ZM34.7328 32.1163C33.2753 30.6224 31.8178 29.1102 30.3603 27.6163C29.8684 29.1102 29.1032 30.6588 30.6336 32.0435C32.0364 33.3188 33.4575 32.5354 34.7328 32.1163ZM45.0264 29.7115C45.9009 30.2398 46.7571 30.7681 47.577 31.2783C48.1418 30.7135 48.7612 30.1123 49.3078 29.5475C48.6337 28.8734 47.9414 28.1811 47.2673 27.507C46.5203 28.2357 45.7369 29.0009 45.0264 29.7115Z" fill="#E5A127"/>
<path id="Vector_2" d="M54.3362 20.6385C54.318 21.3855 53.735 21.9685 52.9698 21.9503C52.241 21.9503 51.6216 21.3309 51.6216 20.6021C51.6216 19.8551 52.2957 19.1993 53.0426 19.2357C53.7896 19.2721 54.3544 19.8734 54.3362 20.6385Z" fill="#E5A127"/>
</g>
</svg>
